<?xml version="1.0" encoding="utf-8"?>
<!-- Generator: Adobe Illustrator 24.1.2, SVG Export Plug-In . SVG Version: 6.00 Build 0)  -->
<svg version="1.1" id="Capa_1" xmlns="http://www.w3.org/2000/svg" xmlns:xlink="http://www.w3.org/1999/xlink" x="0px" y="0px"
	 viewBox="0 0 65 85.7" style="enable-background:new 0 0 65 85.7;" xml:space="preserve">
<style type="text/css">
	.st0{fill:#FFFFFF;}
</style>
<g>
	<path class="st0" d="M15.8,69.7V79c0,4.6-2.9,6.7-7.3,6.7S1.2,83.6,1.2,79v-9.3H7v8.8c0,1.2,0,2.3,1.6,2.3c1.5,0,1.6-1.1,1.6-2.3
		v-8.8H15.8z"/>
	<path class="st0" d="M17.8,69.7h5.5l5.2,8.8h0.2c-0.2-1.3-0.5-2.7-0.5-4v-4.7h5.5v15.8h-5.5l-5.1-8.3h-0.2c0.2,1.1,0.4,2.1,0.4,3.2
		v5.1h-5.5V69.7z"/>
	<polygon class="st0" points="35.8,69.7 46.4,69.7 46.4,74 41.6,74 41.6,75.6 46,75.6 46,79.7 41.6,79.7 41.6,81.2 46.6,81.2 
		46.6,85.5 35.8,85.5 	"/>
	<path class="st0" d="M48.6,85.5h7.3c4.7,0,8-3,8-7.7c0-5.8-4.1-8.1-9.4-8.1h-5.9C48.6,69.7,48.6,85.5,48.6,85.5z M54.4,74.7h0.4
		c2.1,0,3.4,0.9,3.4,3.2c0,2.1-1.5,3-3.4,3h-0.4V74.7z"/>
	<path class="st0" d="M32.5,44.7c6.8,0,12.3-5.5,12.3-12.3v-30c-1.4-0.6-2.8-1-4.3-1.4v31.5c0,4.4-3.6,8-8,8s-8-3.6-8-8V1
		c-1.5,0.4-2.9,0.8-4.3,1.4v30.1C20.2,39.3,25.7,44.7,32.5,44.7"/>
	<path class="st0" d="M32.5,38c3,0,5.5-2.5,5.5-5.5v-32c-1.4-0.2-2.8-0.4-4.3-0.4v32.5c0,0.7-0.6,1.2-1.2,1.2
		c-0.7,0-1.2-0.6-1.2-1.2V0c-1.4,0.1-2.9,0.2-4.3,0.4v32C27,35.5,29.5,38,32.5,38"/>
	<path class="st0" d="M32.5,51.5c10.5,0,19-8.5,19-19V6.1c-1.4-1-2.8-1.8-4.3-2.6v29c0,8.1-6.6,14.8-14.8,14.8
		c-8.1,0-14.7-6.6-14.7-14.8v-29c-1.5,0.8-2.9,1.6-4.3,2.6v26.3C13.5,43,22,51.5,32.5,51.5"/>
	<path class="st0" d="M32.5,58.3c14.2,0,25.8-11.5,25.8-25.8V12.7C57,11,55.6,9.5,54,8.1v24.3c0,11.9-9.6,21.5-21.5,21.5
		S11,44.3,11,32.4V8.1C9.4,9.5,8,11,6.7,12.7v19.8C6.7,46.7,18.3,58.3,32.5,58.3"/>
	<path class="st0" d="M60.8,16.5v16c0,15.6-12.7,28.3-28.3,28.3S4.2,48.1,4.2,32.5l-0.1-0.3V16.7C1.5,21.3,0,26.7,0,32.5
		C0,50.5,14.6,65,32.5,65C50.5,65,65,50.4,65,32.5C65,26.7,63.5,21.2,60.8,16.5"/>
</g>
</svg>
